<svg version="1.2" xmlns="http://www.w3.org/2000/svg" viewBox="0 0 336 336" width="336" height="336"><style></style><path fill-rule="evenodd" d="m332.9 132.6l-15.6 3.8c4.5 5.1 8.4 13.8 7.5 28.7-1.3 21.7-9.2 30-14.5 33.2l7.9 2.4c4.2 4.7-1.1 8.1-8.8 10.6-0.2 0.1-0.3 0.3-0.5 0.4-9.5 5.9-9.3 23.5-7.9 33.6 34 9.7 21.8 12.8 21.8 12.8l-182.5 44.2-120.9-39.3c0 0-17.4-2.2-19.3-35.1-1-17 4.2-26 9.5-30.8l-7.5-1.8c0 0-12.2-3.1 21.8-12.7 1.4-10.2 1.6-27.8-7.9-33.7-0.2-0.1-0.3-0.2-0.4-0.4-7.8-2.4-13.1-5.9-8.9-10.6l15.1-4.6c-4.9-4.3-10.5-13.1-11.5-31-1.9-32.8 19.3-35.9 19.3-35.9l184.7-25.6 114.1 34.3c4.2 4.7-1.1 8.2-8.9 10.7-0.1 0.1-0.2 0.2-0.4 0.4-9.5 5.8-9.3 23.4-7.9 33.6 33.9 9.6 21.7 12.8 21.7 12.8zm-175.7 26.8l130.9-32.6 17-4.2c-0.2-1.3-0.5-2.9-0.6-4.7-0.8-7.9-1.1-20.3 3.9-29.3l-15.5 3.1-103.7 21.3-30.7 6.4zm-126.6 21.3c-0.2 1.8-0.4 3.4-0.6 4.7l13.3 3.3 134.5 33.4-1.3-40-26.1-5.3-8.7-1.8-99.6-20.5-15.4-3.2c4.9 9.1 4.7 21.4 3.9 29.4zm2.1-54.4c0.2 0 0.5 0.1 0.7 0.1l5.9 1.7 111.4 31.2 1.3-40.3-39.7-12.9-79.6-26c0 0-0.6-0.1-1.5-0.1-1.6 0-4 0.4-6 2.5-3.1 3.2-4.7 9.5-4.5 18.2 0.5 24.6 11.5 25.6 12 25.6zm109.2 118.3l-119.4-38.9q0.1 0 0 0c0 0-0.6-0.2-1.5-0.2-1.6 0-4 0.5-6 2.5-3.1 3.2-4.7 9.6-4.5 18.3 0.5 24.5 11.6 25.5 12 25.6 0.3 0 0.6 0 0.8 0.1l117.3 32.9zm156.3-30.5l-15.5 3.2-80.6 16.5-17.5 5.7-4.6-1.1-31.7 6.5-1.2 40 147.8-36.8c-0.2-1.2-0.4-2.9-0.6-4.7-0.8-7.9-1-20.3 3.9-29.3zm16.2-50.6c0.2-8.7-1.4-15-4.5-18.3-3.3-3.3-7.7-2.3-7.7-2.3l-84.3 27.5-34.9 11.4 1.3 40.3 106.2-29.8 11.1-3.1q0.4-0.1 0.8-0.1c0.4-0.1 11.4-1.1 12-25.6z"/></svg>