<svg version="1.2" xmlns="http://www.w3.org/2000/svg" viewBox="0 0 256 256" width="256" height="256"><style>.a{fill:#b0b6bc}.b{fill:#e74e3a}.c{fill:#2c2c2c}.d{fill:#f2f2f2}</style><path class="a" d="m11.6 113l114.6-82.7 3.4 4.7-114.6 82.7z"/><path class="a" d="m126.2 35l3.3-4.7 114.6 82.7-3.4 4.7z"/><path class="b" d="m239.9 233.2h-224.1c-7.9 0-14.4-6.4-14.4-14.4v-94.7c0-7.9 6.5-14.4 14.4-14.4h224.1c7.9 0 14.4 6.5 14.4 14.4v94.7c0 8-6.5 14.4-14.4 14.4z"/><path class="c" d="m127.9 42.8c-5.7 0-10.2-4.5-10.2-10.1 0-5.7 4.5-10.2 10.2-10.2 5.6 0 10.1 4.5 10.1 10.2 0 5.6-4.5 10.1-10.1 10.1z"/><path class="d" d="m172.2 205h-32.7c-1.5 0-2.8-1.2-2.8-2.8v-61c0-1.6 1.3-2.8 2.8-2.8 1.6 0 2.8 1.2 2.8 2.8v58.2h29.9c1.6 0 2.8 1.3 2.8 2.8 0 1.6-1.2 2.8-2.8 2.8z"/><path class="d" d="m54.6 205h-19.9c-1.6 0-2.8-1.2-2.8-2.8 0-1.5 1.2-2.8 2.8-2.8h19.9c4.3 0 7.8-3.5 7.8-7.8v-9.3c0-4.3-3.5-7.8-7.8-7.8h-11.1c-7.4 0-13.4-6-13.4-13.4v-9.3c0-7.4 6-13.4 13.4-13.4h19.9c1.6 0 2.8 1.2 2.8 2.8 0 1.6-1.2 2.8-2.8 2.8h-19.9c-4.3 0-7.8 3.5-7.8 7.8v9.3c0 4.3 3.5 7.8 7.8 7.8h11.1c7.4 0 13.4 6 13.4 13.4v9.3c0 7.4-6 13.4-13.4 13.4z"/><path fill-rule="evenodd" class="d" d="m124.2 154.4v47.8c0 1.6-1.3 2.8-2.8 2.8-1.6 0-2.8-1.2-2.8-2.8v-27.7h-32.3v27.7c0 1.6-1.2 2.8-2.8 2.8-1.5 0-2.8-1.2-2.8-2.8v-47.8c0-8.8 7.2-16 16-16h11.5c8.8 0 16 7.2 16 16zm-5.6 14.5v-14.5c0-5.8-4.7-10.4-10.4-10.4h-11.5c-5.7 0-10.4 4.7-10.4 10.4v14.5c0 0 32.3 0 32.3 0z"/><path class="d" d="m192.9 174.5v24.9h29.9c1.6 0 2.8 1.3 2.8 2.8 0 1.6-1.2 2.8-2.8 2.8h-32.7c-1.5 0-2.8-1.2-2.8-2.8v-61c0-1.6 1.3-2.8 2.8-2.8h32.7c1.6 0 2.8 1.2 2.8 2.8 0 1.6-1.2 2.8-2.8 2.8h-29.9v24.9h29.9c1.6 0 2.8 1.3 2.8 2.8 0 1.6-1.2 2.8-2.8 2.8 0 0-29.9 0-29.9 0z"/></svg>